<?xml version="1.0" encoding="UTF-8"?>
<svg id="Layer_1" data-name="Layer 1" xmlns="http://www.w3.org/2000/svg" viewBox="0 0 532.02 542.02">
  <defs>
    <style>
      .cls-1 {
        fill: #b780ef;
      }

      .cls-2 {
        fill: #f7effe;
      }

      .cls-3 {
        fill: #ebdcfa;
      }

      .cls-4 {
        fill: #481a7a;
      }

      .cls-5 {
        fill: #a766eb;
      }

      .cls-6 {
        fill: #d7b8f6;
      }

      .cls-7 {
        fill: #974ae7;
      }

      .cls-8 {
        fill: #6731a1;
      }
    </style>
  </defs>
  <path class="cls-3" d="M439.34,65.62v132.41l-101.98-103.41L246.39.76c70.46-5.44,140.07,18.4,192.95,64.86Z"/>
  <path class="cls-2" d="M531.32,251.43l-91.96,92.14V65.62c53.83,47.29,86.78,113.86,91.96,185.8Z"/>
  <path class="cls-4" d="M467.34,447.67h-129.32l101.39-104.11,91.91-92.14c5.12,71.11-17.86,142.13-63.98,196.25Z"/>
  <path class="cls-8" d="M338.02,447.58h129.32c-46.24,54.27-110.69,88.11-181.9,93.66l-90.98-93.66h143.56Z"/>
  <path class="cls-7" d="M194.46,447.39l90.98,93.85c-70.28,5.48-139.92-18.33-192.72-64.81v-132.33l101.73,103.29Z"/>
  <path class="cls-5" d="M92.77,344.1v132.33C38.76,428.88,5.94,362.55.72,290.58l92.05-92.62v146.14Z"/>
  <path class="cls-1" d="M194.01,94.75l-101.15,103.21L.72,290.58c-5.14-70.88,17.47-141.47,63.16-195.83h130.13Z"/>
  <path class="cls-6" d="M246.39.76l90.97,93.95H63.88C109.81,40.07,174.89,6.28,246.39.76Z"/>
  <path class="cls-1" d="M317.66,398.93h-103.13l-73.8-74.73v-106.2l73.84-74.95h103.61l73.07,75.08v106.04l-73.6,74.76ZM296.82,344.99l42.12-43.56v-61.2l-43.33-44.16h-59.18l-43.35,43.39v62.03c13.74,15.79,28.37,29.02,42.59,43.51h61.15Z"/>
</svg>